<?xml version="1.0" encoding="iso-8859-1"?>
<!-- Generator: Adobe Illustrator 23.0.3, SVG Export Plug-In . SVG Version: 6.00 Build 0)  -->
<svg version="1.1" id="Layer_1" xmlns="http://www.w3.org/2000/svg" xmlns:xlink="http://www.w3.org/1999/xlink" x="0px" y="0px"
	 width="393.377px" height="387.698px" viewBox="0 0 393.377 387.698" enable-background="new 0 0 393.377 387.698"
	 xml:space="preserve">
<g>
	<path d="M94.37,209.535l10.016,40.732l29.257-27.417l20.297,44.947l26.51-29.388l19.361,37.043l26.122-36.771l26.75,26.63
		l26.362-32.011l16.635,14.969c14.62-17.318,23.988-33.659,28.129-49.036c-34.721,16.608-73.733,26.043-116.956,28.284
		c-9.499,0.491-17.789,0.573-24.834,0.206c-50.325-5.125-87.795-20.996-112.452-47.571c4.532,19.508,8.399,32.889,11.592,40.11
		L94.37,209.535z"/>
	<path d="M101.843,144.918c4.979,4.497,10.815,6.561,17.512,6.214c7.006-0.363,12.797-3.03,17.281-8.019
		c4.509-5.001,6.589-10.847,6.242-17.514c-0.345-6.666-3.019-12.275-8.018-16.739c-4.979-4.524-11.01-6.614-18.018-6.251
		c-6.7,0.348-12.287,3.042-16.775,8.053c-4.484,4.958-6.584,10.813-6.24,17.478C94.177,134.804,96.867,140.407,101.843,144.918z"/>
	<path d="M273.38,169.866c4.988,4.497,10.828,6.563,17.517,6.216c6.664-0.345,12.255-3.002,16.759-7.993
		c4.502-4.981,6.568-11.003,6.206-18.041c-0.347-6.666-3.014-12.266-8.009-16.775c-5.004-4.496-10.83-6.561-17.498-6.217
		c-6.689,0.345-12.287,3.006-16.775,7.994c-4.486,5-6.562,10.847-6.215,17.512C265.727,159.603,268.403,165.374,273.38,169.866z"/>
</g>
<g>
</g>
<g>
</g>
<g>
</g>
<g>
</g>
<g>
</g>
<g>
</g>
</svg>
